<?xml version="1.0" standalone="no"?>
<!DOCTYPE svg PUBLIC "-//W3C//DTD SVG 20010904//EN"
 "http://www.w3.org/TR/2001/REC-SVG-20010904/DTD/svg10.dtd">
<svg version="1.0" xmlns="http://www.w3.org/2000/svg"
 width="33.000000pt" height="27.000000pt" viewBox="0 0 33.000000 27.000000"
 preserveAspectRatio="xMidYMid meet">

<g transform="translate(0.000000,27.000000) scale(0.100000,-0.100000)"
fill="#000000" stroke="none">
<path d="M96 260 c-37 -11 -83 -55 -90 -86 -7 -27 5 -57 37 -91 19 -21 19 -24
3 -47 -9 -14 -16 -27 -16 -30 0 -8 61 12 77 25 8 7 36 13 62 14 84 3 151 55
151 118 0 74 -122 127 -224 97z m20 -91 c10 -17 -23 -46 -37 -32 -7 7 -9 19
-6 27 7 18 33 21 43 5z m70 0 c10 -17 -23 -46 -37 -32 -7 7 -9 19 -6 27 7 18
33 21 43 5z m67 -3 c8 -20 -20 -43 -35 -28 -14 14 -3 42 16 42 7 0 16 -6 19
-14z"/>
</g>
</svg>
