<?xml version="1.0" standalone="no"?>
<!DOCTYPE svg PUBLIC "-//W3C//DTD SVG 20010904//EN"
 "http://www.w3.org/TR/2001/REC-SVG-20010904/DTD/svg10.dtd">
<svg version="1.0" xmlns="http://www.w3.org/2000/svg"
 width="30.000000pt" height="26.000000pt" viewBox="0 0 30.000000 26.000000"
 preserveAspectRatio="xMidYMid meet">

<g transform="translate(0.000000,26.000000) scale(0.100000,-0.100000)"
fill="#000000" stroke="none">
<path d="M75 232 c-16 -11 -36 -26 -43 -34 -34 -41 -36 -134 -3 -146 9 -3 30
-16 47 -29 17 -12 34 -20 37 -16 9 8 9 98 1 106 -4 4 -19 -2 -34 -13 -38 -27
-40 -26 -40 18 1 81 91 128 170 87 45 -23 71 -82 51 -114 -7 -11 -14 -10 -40
8 l-31 22 0 -60 0 -59 30 14 c17 9 30 19 30 24 0 4 9 10 19 13 13 3 22 17 27
43 20 107 -123 195 -221 136z"/>
</g>
</svg>
