<?xml version="1.0" standalone="no"?>
<!DOCTYPE svg PUBLIC "-//W3C//DTD SVG 20010904//EN"
 "http://www.w3.org/TR/2001/REC-SVG-20010904/DTD/svg10.dtd">
<svg version="1.0" xmlns="http://www.w3.org/2000/svg"
 width="32.000000pt" height="25.000000pt" viewBox="0 0 32.000000 25.000000"
 preserveAspectRatio="xMidYMid meet">

<g transform="translate(0.000000,25.000000) scale(0.100000,-0.100000)"
fill="#000000" stroke="none">
<path d="M110 225 c0 -20 -5 -25 -23 -25 -37 0 -64 -38 -69 -97 -4 -40 -2 -53
8 -53 8 0 14 -7 14 -15 0 -19 36 -38 60 -30 10 3 22 15 25 26 8 24 75 28 75 4
0 -19 36 -38 60 -30 10 3 22 15 25 26 4 10 11 19 16 19 5 0 9 45 9 100 l0 100
-100 0 -100 0 0 -25z m0 -65 c0 -16 -7 -20 -37 -20 -35 0 -36 0 -18 20 10 11
26 20 37 20 11 0 18 -7 18 -20z m-2 -113 c4 -20 -25 -34 -40 -19 -15 15 -1 44
19 40 10 -2 19 -11 21 -21z m160 0 c4 -20 -25 -34 -40 -19 -15 15 -1 44 19 40
10 -2 19 -11 21 -21z"/>
</g>
</svg>
